<svg id="visual" viewBox="0 0 600 900" width="600" height="900" xmlns="http://www.w3.org/2000/svg" xmlns:xlink="http://www.w3.org/1999/xlink" version="1.1"><g transform="translate(322.21554238828827 496.0495170146091)"><path d="M161.2 -290.1C203.8 -254.7 229.7 -201.1 239 -149.7C248.4 -98.3 241.4 -49.2 240.4 -0.6C239.4 48 244.4 96 229.9 138.6C215.4 181.2 181.5 218.3 139.9 236C98.3 253.7 49.2 251.8 -0.6 252.8C-50.3 253.8 -100.7 257.7 -139.1 238.2C-177.5 218.7 -203.9 175.8 -232.4 132.3C-260.9 88.7 -291.5 44.3 -288 2C-284.5 -40.3 -247.1 -80.7 -224.6 -134.8C-202.2 -188.9 -194.9 -256.8 -159.9 -296.7C-125 -336.5 -62.5 -348.3 -1.6 -345.5C59.3 -342.8 118.7 -325.5 161.2 -290.1" fill="#000"></path></g></svg>